<svg xmlns="http://www.w3.org/2000/svg" width="60" height="60" viewBox="0 0 60 60">
  <g id="line" transform="translate(-1830 -4598)">
    <circle id="椭圆_4" data-name="椭圆 4" cx="30" cy="30" r="30" transform="translate(1830 4598)" fill="#4caf50"/>
    <path id="line_circle_" data-name="line(circle)" d="M15,.5C6.731.5,0,6,0,12.754,0,18.8,5.337,23.875,12.544,24.839c.489.1,1.154.325,1.322.743a3.093,3.093,0,0,1,.047,1.359l-.2,1.283c-.056.379-.3,1.491,1.311.811s8.645-5.13,11.795-8.774A10.876,10.876,0,0,0,30,12.754C30,6,23.269.5,15,.5ZM9.129,16.771H6.146a.8.8,0,0,1-.788-.791v-6a.788.788,0,1,1,1.575,0v5.209H9.129a.792.792,0,0,1,0,1.584Zm3.083-.791a.786.786,0,1,1-1.572,0v-6a.786.786,0,1,1,1.573,0Zm7.176,0a.792.792,0,0,1-.54.75.807.807,0,0,1-.249.039.772.772,0,0,1-.638-.315l-3.054-4.172v3.7a.786.786,0,1,1-1.571,0v-6a.788.788,0,0,1,.538-.749.727.727,0,0,1,.242-.041.807.807,0,0,1,.619.32L17.813,13.7V9.979a.788.788,0,1,1,1.575,0Zm4.819-3.794a.793.793,0,0,1,0,1.586H22.012v1.415h2.194a.792.792,0,0,1,0,1.584H21.224a.791.791,0,0,1-.784-.791v-6a.792.792,0,0,1,.787-.793H24.21a.793.793,0,0,1,0,1.585H22.012v1.415Z" transform="translate(1844.776 4613.411)" fill="#fff"/>
  </g>
</svg>
