<svg xmlns="http://www.w3.org/2000/svg" width="32" height="32" viewBox="0 0 32 32">
  <g id="company_phone" transform="translate(-1167.641 -842.257)">
    <circle id="椭圆_9" data-name="椭圆 9" cx="16" cy="16" r="16" transform="translate(1167.641 842.257)" fill="#14375b"/>
    <g id="old-typical-phone" transform="translate(1176.75 848.042)">
      <g id="组_22" data-name="组 22" transform="translate(0 4.542)">
        <path id="路径_36" data-name="路径 36" d="M7,6.615c2.322.023,3.777-.122,3.973,2.452H13.81c0-3.987-3.477-4.525-6.879-4.525S.052,5.079.052,9.067h2.81C3.079,6.444,4.7,6.592,7,6.615Z" transform="translate(-0.038 -4.542)" fill="#fff"/>
        <path id="路径_37" data-name="路径 37" d="M1.418,23.6c.69,0,1.264.041,1.391-.637a1.731,1.731,0,0,0,.027-.318H0C0,23.651.635,23.6,1.418,23.6Z" transform="translate(0 -17.79)" fill="#fff"/>
        <path id="路径_38" data-name="路径 38" d="M40.808,22.642h-.027a1.515,1.515,0,0,0,.03.318c.135.626.708.587,1.395.587.787,0,1.425.052,1.425-.9Z" transform="translate(-29.85 -17.79)" fill="#fff"/>
        <path id="路径_39" data-name="路径 39" d="M12.294,18.463v-.4c0-.179-.207-.191-.462-.191h-.417c-.255,0-.462.011-.462.191v.614H8v-.614c0-.179-.207-.191-.462-.191H7.126c-.255,0-.462.011-.462.191v.751a29.717,29.717,0,0,0-2.95,4.029v2.4a.4.4,0,0,0,.4.4H14.84a.4.4,0,0,0,.4-.4V22.83a30.248,30.248,0,0,0-2.949-4.017Zm-4.434,4.7a.391.391,0,1,1,.391-.391A.391.391,0,0,1,7.86,23.165Zm0-1.34a.391.391,0,1,1,.391-.391A.391.391,0,0,1,7.86,21.825Zm0-1.34a.391.391,0,1,1,.391-.391A.391.391,0,0,1,7.86,20.485Zm1.608,2.68a.391.391,0,1,1,.391-.391A.391.391,0,0,1,9.468,23.165Zm0-1.34a.391.391,0,1,1,.391-.391A.391.391,0,0,1,9.468,21.825Zm0-1.34a.391.391,0,1,1,.391-.391A.391.391,0,0,1,9.468,20.485Zm1.608,2.68a.391.391,0,1,1,.391-.391A.391.391,0,0,1,11.076,23.165Zm0-1.34a.391.391,0,1,1,.391-.391A.391.391,0,0,1,11.076,21.825Zm0-1.34a.391.391,0,1,1,.391-.391A.391.391,0,0,1,11.076,20.485Z" transform="translate(-2.719 -14.298)" fill="#fff"/>
      </g>
    </g>
  </g>
</svg>
