<svg xmlns="http://www.w3.org/2000/svg" width="32" height="32" viewBox="0 0 32 32">
  <g id="fax" transform="translate(-1180 -769.257)">
    <circle id="椭圆_9" data-name="椭圆 9" cx="16" cy="16" r="16" transform="translate(1180 769.257)" fill="#14375b"/>
    <g id="_4d887308e0ee13d7cc0ba4190b52470d" data-name="4d887308e0ee13d7cc0ba4190b52470d" transform="translate(1146.836 767.827)">
      <g id="组_23" data-name="组 23" transform="translate(42.254 10.01)">
        <path id="路径_50" data-name="路径 50" d="M45.231-501.924a.448.448,0,0,0-.194.194l-.067.124v2.623h-.7a4.333,4.333,0,0,0-.873.043,1.576,1.576,0,0,0-1.064.992,12.863,12.863,0,0,0-.072,2.846c-.009,2.964-.012,2.889.174,3.245a1.679,1.679,0,0,0,.688.659,1.544,1.544,0,0,0,.781.168h.257l.009-1.513.009-1.51.075-.162a1.133,1.133,0,0,1,.738-.619c.156-.04.648-.043,4.266-.038l4.09.009.168.078a1.243,1.243,0,0,1,.558.552l.084.179.009,1.513.009,1.51h.266a1.527,1.527,0,0,0,1.18-.46,1.573,1.573,0,0,0,.283-.373c.182-.362.179-.283.171-3.239l-.009-2.681-.078-.2a1.525,1.525,0,0,0-1-.943,2.827,2.827,0,0,0-.9-.058h-.72v-1.31c0-1.313,0-1.313-.067-1.44a.421.421,0,0,0-.194-.194l-.127-.064H45.355Zm7.2,1.92L52.418-499H45.911L45.9-500l-.006-1h6.536Zm2.114,2.236a.75.75,0,0,1,.214.176.63.63,0,0,1-.489,1.038.639.639,0,0,1-.5-1.05A.672.672,0,0,1,54.541-497.767Z" transform="translate(-42.254 501.99)" fill="#fff"/>
        <path id="路径_51" data-name="路径 51" d="M222.5,75.238a.507.507,0,0,0-.263.252,14.819,14.819,0,0,0-.055,2.777,13.006,13.006,0,0,0,.058,2.777.552.552,0,0,0,.165.191l.107.072h3.875c3.861,0,3.878,0,3.98-.061a.566.566,0,0,0,.165-.156l.067-.1V75.545l-.064-.1a.855.855,0,0,0-.147-.156l-.081-.061-3.881-.006C224.289,75.224,222.521,75.23,222.5,75.238Zm7.144,3v2.1h-6.536V76.144h6.536Z" transform="translate(-219.464 -66.513)" fill="#fff"/>
        <path id="路径_52" data-name="路径 52" d="M334.487,193.554a.466.466,0,0,0,.029.8,9.008,9.008,0,0,0,2.218.058,9.463,9.463,0,0,0,2.227-.058.438.438,0,0,0,.255-.353.532.532,0,0,0-.2-.44c-.081-.061-.116-.061-2.259-.069l-2.175-.006Z" transform="translate(-329.862 -182.991)" fill="#fff"/>
        <path id="路径_53" data-name="路径 53" d="M333.617,308.459a.471.471,0,0,0-.307.442.5.5,0,0,0,.211.35c.081.061.1.061,2.213.069,1.443.006,2.166,0,2.238-.023a.468.468,0,0,0,.3-.344.454.454,0,0,0-.246-.46l-.127-.064-2.1,0C334.643,308.433,333.663,308.448,333.617,308.459Z" transform="translate(-328.916 -296.196)" fill="#fff"/>
      </g>
    </g>
  </g>
</svg>
