<svg xmlns="http://www.w3.org/2000/svg" width="60" height="60" viewBox="0 0 60 60">
  <g id="phone_circle_" data-name="phone(circle)" transform="translate(-636 -158)">
    <circle id="椭圆_1" data-name="椭圆 1" cx="30" cy="30" r="30" transform="translate(636 158)" fill="#4e6277"/>
    <g id="phone" transform="translate(654.24 176.265)">
      <path id="Path_1" data-name="Path 1" d="M22.991,18.954l-3.632-3.632a1.893,1.893,0,0,0-2.671.051l-1.83,1.83L14.5,17a18.212,18.212,0,0,1-4.4-3.183,18.325,18.325,0,0,1-3.19-4.41c-.067-.118-.133-.235-.2-.353L7.938,7.828l.6-.607A1.892,1.892,0,0,0,8.59,4.551L4.958.921A1.892,1.892,0,0,0,2.289.971L1.265,2l.028.028A5.92,5.92,0,0,0,.449,3.516,6.169,6.169,0,0,0,.073,5.025C-.406,9,1.411,12.631,6.342,17.57c6.82,6.82,12.309,6.3,12.546,6.275a6.137,6.137,0,0,0,1.513-.38,5.9,5.9,0,0,0,1.482-.84l.022.02,1.037-1.016a1.9,1.9,0,0,0,.048-2.675Z" transform="translate(0.001 -0.394)" fill="#fff"/>
    </g>
  </g>
</svg>
