<svg xmlns="http://www.w3.org/2000/svg" width="32" height="32" viewBox="0 0 32 32">
  <g id="phone" transform="translate(-1180 -727.257)">
    <circle id="椭圆_8" data-name="椭圆 8" cx="16" cy="16" r="16" transform="translate(1180 727.257)" fill="#14375b"/>
    <g id="Group_2" data-name="Group 2" transform="translate(1189.5 736.772)">
      <g id="Group_1" data-name="Group 1" transform="translate(0 0)">
        <path id="Path_1" data-name="Path 1" d="M12.708,10.653,10.7,8.645a1.047,1.047,0,0,0-1.476.028L8.213,9.684l-.2-.111a10.067,10.067,0,0,1-2.433-1.76A10.129,10.129,0,0,1,3.817,5.376c-.037-.068-.073-.133-.109-.195L4.387,4.5l.334-.334a1.046,1.046,0,0,0,.027-1.476L2.74.685A1.046,1.046,0,0,0,1.264.713L.7,1.282.714,1.3a3.272,3.272,0,0,0-.466.822,3.41,3.41,0,0,0-.207.834C-.225,5.151.78,7.16,3.505,9.886c3.767,3.767,6.8,3.483,6.935,3.469a3.392,3.392,0,0,0,.837-.21,3.261,3.261,0,0,0,.819-.464l.012.011.573-.561A1.048,1.048,0,0,0,12.708,10.653Z" transform="translate(0.001 -0.394)" fill="#fff"/>
      </g>
    </g>
  </g>
</svg>
